<svg id="brand_github" data-name="brand / github" xmlns="http://www.w3.org/2000/svg" xmlns:xlink="http://www.w3.org/1999/xlink" width="90" height="90" viewBox="0 0 90 90">
  <defs>
    <clipPath id="clip-path">
      <rect id="brand_github_Background_Mask_" data-name="brand / github (Background/Mask)" width="90" height="90" fill="#000a2a"/>
    </clipPath>
  </defs>
  <rect id="brand_github_Background_Mask_2" data-name="brand / github (Background/Mask)" width="90" height="90" fill="none"/>
  <g id="brand_github-2" data-name="brand / github" clip-path="url(#clip-path)">
    <path id="brand_github-3" data-name="brand / github" d="M.486,31.417A37.406,37.406,0,0,0,25.591,72.9c1.875.337,2.546-.814,2.546-1.8,0-.889-.03-3.244-.041-6.375-10.406,2.25-12.6-5.017-12.6-5.017a9.881,9.881,0,0,0-4.151-5.471c-3.375-2.321.259-2.269.259-2.269a7.834,7.834,0,0,1,5.726,3.855A7.965,7.965,0,0,0,28.2,58.924a8.017,8.017,0,0,1,2.381-5c-8.3-.941-17.032-4.151-17.032-18.487A14.494,14.494,0,0,1,17.4,25.418a13.455,13.455,0,0,1,.375-9.9s3.139-1.009,10.282,3.829a35.4,35.4,0,0,1,18.72,0c7.148-4.841,10.283-3.829,10.283-3.829a13.391,13.391,0,0,1,.375,9.9,14.4,14.4,0,0,1,3.84,10.031c0,14.374-8.737,17.531-17.07,18.457a8.962,8.962,0,0,1,2.531,6.923c0,5-.045,9.037-.045,10.264,0,1,.667,2.164,2.576,1.8A37.408,37.408,0,1,0,.486,31.417Z" transform="translate(7.683 7.5)" fill="#000a2a"/>
  </g>
</svg>
